<svg id="visual" viewBox="0 0 900 600" width="900" height="600" xmlns="http://www.w3.org/2000/svg" xmlns:xlink="http://www.w3.org/1999/xlink" version="1.1"><path d="M0 67L82 67L82 91L164 91L164 91L245 91L245 115L327 115L327 91L409 91L409 73L491 73L491 61L573 61L573 67L655 67L655 139L736 139L736 151L818 151L818 127L900 127L900 133L900 0L900 0L818 0L818 0L736 0L736 0L655 0L655 0L573 0L573 0L491 0L491 0L409 0L409 0L327 0L327 0L245 0L245 0L164 0L164 0L82 0L82 0L0 0Z" fill="#b8b8ff"></path><path d="M0 355L82 355L82 211L164 211L164 283L245 283L245 361L327 361L327 253L409 253L409 319L491 319L491 205L573 205L573 199L655 199L655 277L736 277L736 361L818 361L818 259L900 259L900 361L900 131L900 125L818 125L818 149L736 149L736 137L655 137L655 65L573 65L573 59L491 59L491 71L409 71L409 89L327 89L327 113L245 113L245 89L164 89L164 89L82 89L82 65L0 65Z" fill="#aeabff"></path><path d="M0 403L82 403L82 271L164 271L164 379L245 379L245 397L327 397L327 337L409 337L409 379L491 379L491 247L573 247L573 295L655 295L655 337L736 337L736 463L818 463L818 331L900 331L900 403L900 359L900 257L818 257L818 359L736 359L736 275L655 275L655 197L573 197L573 203L491 203L491 317L409 317L409 251L327 251L327 359L245 359L245 281L164 281L164 209L82 209L82 353L0 353Z" fill="#a49dff"></path><path d="M0 475L82 475L82 325L164 325L164 469L245 469L245 517L327 517L327 397L409 397L409 445L491 445L491 355L573 355L573 403L655 403L655 451L736 451L736 511L818 511L818 409L900 409L900 499L900 401L900 329L818 329L818 461L736 461L736 335L655 335L655 293L573 293L573 245L491 245L491 377L409 377L409 335L327 335L327 395L245 395L245 377L164 377L164 269L82 269L82 401L0 401Z" fill="#9b8fff"></path><path d="M0 601L82 601L82 601L164 601L164 601L245 601L245 601L327 601L327 601L409 601L409 601L491 601L491 601L573 601L573 601L655 601L655 601L736 601L736 601L818 601L818 601L900 601L900 601L900 497L900 407L818 407L818 509L736 509L736 449L655 449L655 401L573 401L573 353L491 353L491 443L409 443L409 395L327 395L327 515L245 515L245 467L164 467L164 323L82 323L82 473L0 473Z" fill="#9381ff"></path></svg>